# xmcd
#
# Track frame offsets:
#	150
#	14623
#	38165
#	52914
#	67968
#	85501
#	110440
#	122288
#	135582
#	147183
#	161658
#	185218
#	199365
#	217002
#	242475
#
# Disc length: 3432 seconds
#
# Revision: 1
# Processed by: cddbd v1.5.2PL0 Copyright (c) Steve Scherf et al.
# Submitted via: audiograbber 1.83.01
#
DISCID=d00d660f
DTITLE=Frank Frost and Sam Carr - The last of the Jelly Roll Kings
DYEAR=2007
DGENRE=Blues
TTITLE0=Better take it slow
TTITLE1=Hey Baby
TTITLE2=Keep things right
TTITLE3=Done with you
TTITLE4=Owl head woman part 2
TTITLE5=Don´t do that
TTITLE6=Jelly Roll King
TTITLE7=Rock me baby
TTITLE8=Come here baby
TTITLE9=St. Lois Serenade
TTITLE10=How many times
TTITLE11=Black Cat Bone
TTITLE12=Midnight prowler
TTITLE13=King biscuit blues
TTITLE14=Arkansas shuffle
EXTD=
EXTT0=
EXTT1=
EXTT2=
EXTT3=
EXTT4=
EXTT5=
EXTT6=
EXTT7=
EXTT8=
EXTT9=
EXTT10=
EXTT11=
EXTT12=
EXTT13=
EXTT14=
PLAYORDER=
